# Blender v2.80 (sub 52) OBJ File: 'Sword.blend'
# www.blender.org
mtllib Hammer.mtl
o Cube.001
v -0.061611 -0.072831 0.061611
v -0.212244 0.212244 0.212244
v -0.061611 -0.072831 -0.061611
v -0.212244 0.212244 -0.212244
v 0.061611 -0.072831 0.061611
v 0.212244 0.212244 0.212244
v 0.061611 -0.072831 -0.061611
v 0.212244 0.212244 -0.212244
v -0.115417 0.212244 0.115417
v -0.115417 0.212244 -0.115417
v 0.115417 0.212244 -0.115417
v 0.115417 0.212244 0.115417
v -0.115417 0.861786 0.115417
v -0.115417 0.861786 -0.115417
v 0.115417 0.861786 -0.115417
v 0.115417 0.861786 0.115417
v -0.224939 0.861786 0.224939
v -0.224939 0.861786 -0.224939
v 0.224939 0.861786 -0.224939
v 0.224939 0.861786 0.224939
v -0.224939 0.947547 0.224939
v -0.224939 0.947547 -0.224939
v 0.224939 0.947547 -0.224939
v 0.224939 0.947547 0.224939
v -0.125082 1.057703 0.125082
v -0.125082 1.057703 -0.125082
v 0.125082 1.057703 -0.125082
v 0.125082 1.057703 0.125082
v -0.125082 4.042058 0.125082
v -0.125082 4.042058 -0.125082
v 0.125082 4.042058 -0.125082
v 0.125082 4.042058 0.125082
v -0.325512 4.152214 0.663493
v -0.325512 4.152214 -0.663493
v 0.325512 4.152214 -0.663493
v 0.325512 4.152214 0.663493
v -0.325512 4.913313 0.663493
v -0.325512 4.913313 -0.663493
v 0.325512 4.913313 -0.663493
v 0.325512 4.913313 0.663493
v -0.226692 4.267742 -0.663493
v 0.226692 4.267742 -0.663493
v -0.226692 4.797784 -0.663493
v 0.226692 4.797784 -0.663493
v -0.226692 4.267742 -0.773944
v 0.226692 4.267742 -0.773944
v -0.226692 4.797784 -0.773944
v 0.226692 4.797784 -0.773944
v -0.394989 4.070989 -0.773944
v 0.394989 4.070989 -0.773944
v -0.394989 4.994537 -0.773944
v 0.394989 4.994537 -0.773944
v -0.394989 4.070989 -1.669664
v 0.394989 4.070989 -1.669664
v -0.394989 4.994537 -1.669664
v 0.394989 4.994537 -1.669664
v 0.237245 4.255404 0.663493
v -0.237245 4.255404 0.663493
v 0.237245 4.810123 0.663493
v -0.237245 4.810123 0.663493
v 0.154950 4.351614 0.539894
v -0.154950 4.351614 0.539894
v 0.154950 4.713913 0.539894
v -0.154950 4.713913 0.539894
v 0.096967 4.486597 1.047718
v -0.096967 4.486597 1.047718
v 0.096967 4.598981 1.166991
v -0.096967 4.598981 1.166991
v -0.394989 4.122100 -0.823515
v -0.394989 4.943426 -0.823515
v -0.394989 4.122100 -1.620093
v -0.394989 4.943426 -1.620093
v -0.367006 4.122100 -0.823515
v -0.367006 4.943426 -0.823515
v -0.367006 4.122100 -1.620093
v -0.367006 4.943426 -1.620093
v 0.394989 4.941511 -0.825373
v 0.394989 4.124016 -0.825373
v 0.394989 4.941511 -1.618236
v 0.394989 4.124016 -1.618236
v 0.289238 4.941511 -0.825373
v 0.289238 4.124016 -0.825373
v 0.289238 4.941511 -1.618236
v 0.289238 4.124016 -1.618236
v -0.252183 4.237941 -1.669664
v 0.252183 4.237941 -1.669664
v -0.252183 4.827586 -1.669664
v 0.252183 4.827586 -1.669664
v -0.252183 4.237941 -1.764627
v 0.252183 4.237941 -1.764627
v -0.252183 4.827586 -1.764627
v 0.252183 4.827586 -1.764627
v 0.058908 0.537015 0.058908
v -0.058908 0.537015 0.058908
v -0.058908 0.537015 -0.058908
v 0.058908 0.537015 -0.058908
v 0.110902 1.892815 -0.110902
v 0.125082 2.549881 -0.125082
v 0.110902 3.215842 -0.110902
v 0.110902 3.215842 0.110902
v 0.125082 2.549881 0.125082
v 0.110902 1.892815 0.110902
v -0.110902 1.892815 0.110902
v -0.125082 2.549881 0.125082
v -0.110902 3.215842 0.110902
v -0.110902 3.215842 -0.110902
v -0.125082 2.549881 -0.125082
v -0.110902 1.892815 -0.110902
v 0.110902 3.297259 -0.110902
v -0.110902 3.297259 0.110902
v 0.110902 3.297259 0.110902
v -0.110902 3.297259 -0.110902
v 0.110902 1.950566 -0.110902
v 0.110902 1.950566 0.110902
v -0.110902 1.950566 0.110902
v -0.110902 1.950566 -0.110902
v 0.132315 3.297259 0.132315
v 0.132315 3.215842 0.132315
v 0.132315 1.950566 0.132315
v 0.132315 1.892815 0.132315
v -0.132315 3.297259 -0.132315
v -0.132315 3.215842 -0.132315
v -0.132315 1.950566 -0.132315
v -0.132315 1.892815 -0.132315
v 0.132315 1.892815 -0.132315
v 0.132315 3.215842 -0.132315
v -0.132315 1.892815 0.132315
v -0.132315 3.215842 0.132315
v 0.132315 3.297259 -0.132315
v -0.132315 3.297259 0.132315
v 0.132315 1.950566 -0.132315
v -0.132315 1.950566 0.132315
v -0.256960 4.991487 0.523764
v -0.256960 4.991487 -0.523764
v 0.256960 4.991487 -0.523764
v 0.256960 4.991487 0.523764
v 0.125959 4.723604 0.853443
v 0.125959 4.452664 0.793806
v -0.125959 4.452664 0.793806
v -0.125959 4.723604 0.853443
vt 0.125000 0.500000
vt 0.375000 0.500000
vt 0.375000 0.750000
vt 0.125000 0.750000
vt 0.625000 0.750000
vt 0.625000 0.500000
vt 0.625000 0.500000
vt 0.625000 0.750000
vt 0.625000 1.000000
vt 0.625000 0.750000
vt 0.625000 0.750000
vt 0.625000 1.000000
vt 0.625000 0.250000
vt 0.625000 0.000000
vt 0.625000 0.000000
vt 0.625000 0.250000
vt 0.625000 1.000000
vt 0.625000 1.000000
vt 0.625000 0.500000
vt 0.625000 0.250000
vt 0.625000 0.250000
vt 0.625000 0.500000
vt 0.625000 0.500000
vt 0.625000 0.250000
vt 0.625000 0.000000
vt 0.625000 0.000000
vt 0.625000 0.750000
vt 0.625000 0.500000
vt 0.625000 0.750000
vt 0.625000 0.000000
vt 0.625000 1.000000
vt 0.625000 1.000000
vt 0.625000 0.750000
vt 0.625000 1.000000
vt 0.625000 0.000000
vt 0.625000 0.250000
vt 0.625000 0.750000
vt 0.625000 0.500000
vt 0.625000 0.500000
vt 0.625000 0.750000
vt 0.625000 0.250000
vt 0.625000 0.500000
vt 0.625000 0.000000
vt 0.625000 0.500000
vt 0.625000 0.750000
vt 0.625000 0.250000
vt 0.625000 0.000000
vt 0.625000 0.000000
vt 0.625000 0.250000
vt 0.625000 1.000000
vt 0.625000 1.000000
vt 0.625000 1.000000
vt 0.625000 0.750000
vt 0.625000 1.000000
vt 0.625000 0.000000
vt 0.625000 0.250000
vt 0.625000 0.500000
vt 0.875000 0.500000
vt 0.875000 0.500000
vt 0.625000 0.500000
vt 0.625000 0.250000
vt 0.625000 0.250000
vt 0.625000 0.250000
vt 0.625000 0.750000
vt 0.625000 0.000000
vt 0.625000 0.500000
vt 0.625000 0.250000
vt 0.625000 0.500000
vt 0.625000 0.500000
vt 0.875000 0.500000
vt 0.625000 0.500000
vt 0.625000 0.500000
vt 0.625000 0.500000
vt 0.875000 0.500000
vt 0.625000 0.250000
vt 0.625000 0.250000
vt 0.625000 0.250000
vt 0.625000 0.250000
vt 0.625000 0.250000
vt 0.875000 0.500000
vt 0.625000 0.500000
vt 0.625000 0.500000
vt 0.625000 0.500000
vt 0.625000 0.500000
vt 0.625000 0.250000
vt 0.625000 0.500000
vt 0.625000 0.500000
vt 0.875000 0.500000
vt 0.625000 0.750000
vt 0.875000 0.750000
vt 0.875000 0.750000
vt 0.625000 0.750000
vt 0.625000 0.000000
vt 0.625000 0.000000
vt 0.875000 0.750000
vt 0.625000 0.750000
vt 0.625000 0.750000
vt 0.625000 0.750000
vt 0.625000 0.750000
vt 0.625000 0.750000
vt 0.625000 1.000000
vt 0.625000 0.000000
vt 0.625000 0.000000
vt 0.625000 1.000000
vt 0.625000 1.000000
vt 0.625000 1.000000
vt 0.625000 0.000000
vt 0.625000 0.000000
vt 0.625000 0.000000
vt 0.625000 0.000000
vt 0.875000 0.750000
vt 0.875000 0.750000
vt 0.875000 0.500000
vt 0.875000 0.500000
vt 0.875000 0.500000
vt 0.875000 0.500000
vt 0.625000 0.250000
vt 0.625000 0.250000
vt 0.625000 0.250000
vt 0.625000 0.250000
vt 0.625000 0.250000
vt 0.625000 0.250000
vt 0.625000 0.250000
vt 0.625000 0.500000
vt 0.625000 0.500000
vt 0.625000 0.500000
vt 0.625000 0.500000
vt 0.625000 0.500000
vt 0.625000 0.500000
vt 0.625000 0.250000
vt 0.625000 0.250000
vt 0.625000 0.500000
vt 0.875000 0.500000
vt 0.625000 0.250000
vt 0.625000 0.250000
vt 0.625000 0.500000
vt 0.875000 0.500000
vt 0.625000 0.250000
vt 0.625000 0.500000
vt 0.625000 0.500000
vt 0.625000 0.250000
vt 0.625000 0.250000
vt 0.625000 0.500000
vt 0.625000 0.250000
vt 0.625000 0.500000
vt 0.625000 0.750000
vt 0.625000 1.000000
vt 0.625000 1.000000
vt 0.625000 0.750000
vt 0.625000 0.750000
vt 0.625000 1.000000
vt 0.625000 0.750000
vt 0.625000 1.000000
vt 0.625000 0.000000
vt 0.625000 0.000000
vt 0.625000 0.000000
vt 0.625000 0.000000
vt 0.625000 0.250000
vt 0.625000 0.000000
vt 0.625000 0.750000
vt 0.625000 1.000000
vt 0.625000 0.250000
vt 0.625000 0.000000
vt 0.625000 1.000000
vt 0.625000 0.750000
vt 0.625000 0.250000
vt 0.625000 0.500000
vt 0.625000 0.750000
vt 0.625000 0.500000
vt 0.625000 0.500000
vt 0.625000 0.500000
vt 0.625000 1.000000
vt 0.625000 0.750000
vt 0.625000 0.000000
vt 0.625000 0.250000
vt 0.625000 0.000000
vt 0.625000 1.000000
vt 0.875000 0.750000
vt 0.625000 0.750000
vt 0.625000 0.000000
vt 0.625000 0.250000
vt 0.375000 0.000000
vt 0.375000 0.250000
vt 0.375000 1.000000
vn 0.0000 -1.0000 0.0000
vn 0.0000 1.0000 0.0000
vn 0.0000 -0.1714 0.9852
vn 0.0000 -0.1714 -0.9852
vn 0.9852 -0.1714 0.0000
vn -0.9852 -0.1714 0.0000
vn 1.0000 0.0000 0.0000
vn 0.0000 0.6716 0.7409
vn -1.0000 0.0000 0.0000
vn 0.0000 0.0000 1.0000
vn 0.0000 0.0000 -1.0000
vn 0.9998 -0.0190 0.0000
vn 0.0000 0.6716 -0.7409
vn 0.7409 0.6716 0.0000
vn -0.7409 0.6716 0.0000
vn 0.4816 -0.8764 0.0000
vn -0.9998 -0.0190 0.0000
vn 0.0000 -0.0190 0.9998
vn 0.0000 -0.0190 -0.9998
vn -0.4816 -0.8764 0.0000
vn 0.0000 -0.9797 0.2004
vn 0.0000 -0.9797 -0.2004
vn 0.0000 0.8727 -0.4882
vn 0.0000 -0.7891 0.6142
vn 0.9945 -0.0441 0.0946
vn -0.8324 0.0000 0.5542
vn 0.0000 0.7891 0.6142
vn 0.8324 0.0000 0.5542
vn 0.0000 -0.7278 0.6858
vn 0.0000 -0.9912 0.1325
vn -0.9945 -0.0441 0.0946
vn 0.0000 0.9293 0.3694
vn -0.9852 0.1714 0.0000
vn 0.9852 0.1714 0.0000
vn 0.0000 0.1714 -0.9852
vn 0.0000 0.1714 0.9852
vn 0.0000 0.0170 -0.9999
vn 0.0000 -0.0237 -0.9997
vn 0.0000 0.0213 -0.9998
vn 0.0000 0.0170 0.9999
vn 0.0000 -0.0237 0.9997
vn 0.0000 0.0213 0.9998
vn -0.9999 0.0170 0.0000
vn -0.9997 -0.0237 0.0000
vn -0.9998 0.0213 0.0000
vn 0.9999 0.0170 0.0000
vn 0.9997 -0.0237 0.0000
vn 0.9998 0.0213 0.0000
vn 0.7519 0.6593 0.0000
vn -0.7519 0.6593 0.0000
vn 0.0000 0.8727 0.4882
vn 0.0000 0.9995 -0.0309
vn -0.9946 -0.0097 0.1035
vn 0.0000 -0.9291 0.3698
vn 0.9946 -0.0097 0.1035
vn -0.8842 -0.4672 0.0000
vn 0.0000 -0.4672 -0.8842
vn 0.8842 -0.4672 0.0000
vn 0.0000 -0.4672 0.8842
usemtl Sword
s off
f 3/1/1 7/2/1 5/3/1 1/4/1
f 6/5/2 8/6/2 11/7/2 12/8/2
f 94/9/3 93/10/3 16/11/3 13/12/3
f 4/13/2 2/14/2 9/15/2 10/16/2
f 2/17/2 6/5/2 12/8/2 9/18/2
f 8/6/2 4/13/2 10/16/2 11/7/2
f 15/19/1 14/20/1 18/21/1 19/22/1
f 96/23/4 95/24/4 14/20/4 15/19/4
f 93/10/5 96/23/5 15/19/5 16/11/5
f 95/24/6 94/25/6 13/26/6 14/20/6
f 20/27/7 19/22/7 23/28/7 24/29/7
f 16/11/1 15/19/1 19/22/1 20/27/1
f 14/20/1 13/26/1 17/30/1 18/21/1
f 13/12/1 16/11/1 20/27/1 17/31/1
f 21/32/8 24/29/8 28/33/8 25/34/8
f 18/21/9 17/30/9 21/35/9 22/36/9
f 17/31/10 20/27/10 24/29/10 21/32/10
f 19/22/11 18/21/11 22/36/11 23/28/11
f 111/37/12 109/38/12 31/39/12 32/40/12
f 23/28/13 22/36/13 26/41/13 27/42/13
f 24/29/14 23/28/14 27/42/14 28/33/14
f 22/36/15 21/35/15 25/43/15 26/41/15
f 32/40/16 31/39/16 35/44/16 36/45/16
f 112/46/17 110/47/17 29/48/17 30/49/17
f 110/50/18 111/37/18 32/40/18 29/51/18
f 109/38/19 112/46/19 30/49/19 31/39/19
f 33/52/10 36/45/10 57/53/10 58/54/10
f 30/49/20 29/48/20 33/55/20 34/56/20
f 29/51/21 32/40/21 36/45/21 33/52/21
f 31/39/22 30/49/22 34/56/22 35/44/22
f 39/57/23 38/58/23 134/59/23 135/60/23
f 34/56/11 38/61/11 43/62/11 41/63/11
f 36/45/7 35/44/7 39/57/7 40/64/7
f 34/56/9 33/55/9 37/65/9 38/61/9
f 42/66/1 41/63/1 45/67/1 46/68/1
f 35/44/11 34/56/11 41/63/11 42/66/11
f 39/57/11 35/44/11 42/66/11 44/69/11
f 38/58/11 39/57/11 44/69/11 43/70/11
f 48/71/10 46/68/10 50/72/10 52/73/10
f 44/69/7 42/66/7 46/68/7 48/71/7
f 43/70/2 44/69/2 48/71/2 47/74/2
f 41/63/9 43/62/9 47/75/9 45/67/9
f 49/76/9 51/77/9 70/78/9 69/79/9
f 47/74/10 48/71/10 52/73/10 51/80/10
f 45/67/10 47/75/10 51/77/10 49/76/10
f 46/68/10 45/67/10 49/76/10 50/72/10
f 56/81/11 54/82/11 86/83/11 88/84/11
f 50/72/1 49/76/1 53/85/1 54/82/1
f 56/81/7 52/73/7 77/86/7 79/87/7
f 51/80/2 52/73/2 56/81/2 55/88/2
f 59/89/24 60/90/24 64/91/24 63/92/24
f 36/45/10 40/64/10 59/89/10 57/53/10
f 37/65/10 33/55/10 58/93/10 60/94/10
f 40/64/10 37/95/10 60/90/10 59/89/10
f 138/96/25 137/97/25 67/98/25 65/99/25
f 57/53/26 59/89/26 63/92/26 61/100/26
f 58/54/27 57/53/27 61/100/27 62/101/27
f 60/94/28 58/93/28 62/102/28 64/103/28
f 66/104/29 65/99/29 67/98/29 68/105/29
f 139/106/30 138/96/30 65/99/30 66/104/30
f 140/107/31 139/108/31 66/109/31 68/110/31
f 137/97/32 140/111/32 68/112/32 67/98/32
f 70/113/1 72/114/1 76/115/1 74/116/1
f 53/85/9 49/76/9 69/79/9 71/117/9
f 51/80/9 55/88/9 72/114/9 70/113/9
f 55/118/9 53/85/9 71/117/9 72/119/9
f 69/79/11 70/78/11 74/120/11 73/121/11
f 71/117/2 69/79/2 73/121/2 75/122/2
f 72/119/10 71/117/10 75/122/10 76/123/10
f 79/87/1 77/86/1 81/124/1 83/125/1
f 54/82/7 56/81/7 79/87/7 80/126/7
f 52/73/7 50/72/7 78/127/7 77/86/7
f 50/72/7 54/82/7 80/126/7 78/127/7
f 80/126/10 79/87/10 83/125/10 84/128/10
f 78/127/2 80/126/2 84/128/2 82/129/2
f 77/86/11 78/127/11 82/129/11 81/124/11
f 86/83/1 85/130/1 89/131/1 90/132/1
f 55/88/11 56/81/11 88/84/11 87/133/11
f 53/85/11 55/118/11 87/134/11 85/130/11
f 54/82/11 53/85/11 85/130/11 86/83/11
f 90/132/11 89/131/11 91/135/11 92/136/11
f 88/84/7 86/83/7 90/132/7 92/136/7
f 87/133/2 88/84/2 92/136/2 91/137/2
f 85/130/9 87/134/9 91/135/9 89/131/9
f 10/16/33 9/15/33 94/25/33 95/24/33
f 12/8/34 11/7/34 96/23/34 93/10/34
f 11/7/35 10/16/35 95/24/35 96/23/35
f 9/18/36 12/8/36 93/10/36 94/9/36
f 27/42/37 26/41/37 108/138/37 97/139/37
f 113/140/38 116/141/38 107/142/38 98/143/38
f 98/143/39 107/142/39 106/144/39 99/145/39
f 25/34/40 28/33/40 102/146/40 103/147/40
f 115/148/41 114/149/41 101/150/41 104/151/41
f 104/151/42 101/150/42 100/152/42 105/153/42
f 26/41/43 25/43/43 103/154/43 108/138/43
f 116/141/44 115/155/44 104/156/44 107/142/44
f 107/142/45 104/156/45 105/157/45 106/144/45
f 28/33/46 27/42/46 97/139/46 102/146/46
f 114/149/47 113/140/47 98/143/47 101/150/47
f 101/150/48 98/143/48 99/145/48 100/152/48
f 110/47/2 112/46/2 121/158/2 130/159/2
f 103/147/1 102/146/1 120/160/1 127/161/1
f 115/155/2 116/141/2 123/162/2 132/163/2
f 111/37/2 110/50/2 130/164/2 117/165/2
f 99/145/1 106/144/1 122/166/1 126/167/1
f 113/140/2 114/149/2 119/168/2 131/169/2
f 102/146/1 97/139/1 125/170/1 120/160/1
f 112/46/2 109/38/2 129/171/2 121/158/2
f 126/167/11 122/166/11 121/158/11 129/171/11
f 128/172/10 118/173/10 117/165/10 130/164/10
f 122/166/9 128/174/9 130/159/9 121/158/9
f 118/173/7 126/167/7 129/171/7 117/165/7
f 120/160/7 125/170/7 131/169/7 119/168/7
f 124/175/9 127/176/9 132/163/9 123/162/9
f 127/161/10 120/160/10 119/168/10 132/177/10
f 125/170/11 124/175/11 123/162/11 131/169/11
f 100/152/1 99/145/1 126/167/1 118/173/1
f 114/149/2 115/148/2 132/177/2 119/168/2
f 109/38/2 111/37/2 117/165/2 129/171/2
f 116/141/2 113/140/2 131/169/2 123/162/2
f 105/153/1 100/152/1 118/173/1 128/172/1
f 108/138/1 103/154/1 127/176/1 124/175/1
f 97/139/1 108/138/1 124/175/1 125/170/1
f 106/144/1 105/157/1 128/174/1 122/166/1
f 135/60/2 134/59/2 133/178/2 136/179/2
f 40/64/49 39/57/49 135/60/49 136/179/49
f 38/61/50 37/65/50 133/180/50 134/181/50
f 37/95/51 40/64/51 136/179/51 133/178/51
f 63/92/52 64/91/52 140/111/52 137/97/52
f 64/103/53 62/102/53 139/108/53 140/107/53
f 62/101/54 61/100/54 138/96/54 139/106/54
f 61/100/55 63/92/55 137/97/55 138/96/55
usemtl Outline
f 1/182/56 2/14/56 4/13/56 3/183/56
f 3/183/57 4/13/57 8/6/57 7/2/57
f 7/2/58 8/6/58 6/5/58 5/3/58
f 5/3/59 6/5/59 2/17/59 1/184/59
f 73/121/9 74/120/9 76/123/9 75/122/9
f 81/124/7 82/129/7 84/128/7 83/125/7
