# Blender v2.80 (sub 52) OBJ File: 'Sword.blend'
# www.blender.org
mtllib Potion.mtl
o Cube.003_Cube.009
v -0.147662 -0.147662 0.147662
v -0.147662 0.147662 0.147662
v -0.147662 -0.147662 -0.147662
v -0.147662 0.147662 -0.147662
v 0.147662 -0.147662 0.147662
v 0.147662 0.147662 0.147662
v 0.147662 -0.147662 -0.147662
v 0.147662 0.147662 -0.147662
v -0.083827 0.177616 0.083827
v -0.083827 0.177616 -0.083827
v 0.083827 0.177616 -0.083827
v 0.083827 0.177616 0.083827
v -0.048927 0.177616 0.048927
v -0.048927 0.177616 -0.048927
v 0.048927 0.177616 -0.048927
v 0.048927 0.177616 0.048927
v -0.048927 0.229144 0.048927
v -0.048927 0.229144 -0.048927
v 0.048927 0.229144 -0.048927
v 0.048927 0.229144 0.048927
v -0.061140 0.248215 0.061140
v -0.061140 0.248215 -0.061140
v 0.061140 0.248215 -0.061140
v 0.061140 0.248215 0.061140
v -0.061140 0.295557 0.061140
v -0.061140 0.295557 -0.061140
v 0.061140 0.295557 -0.061140
v 0.061140 0.295557 0.061140
v -0.030860 0.306904 0.030860
v -0.030860 0.306904 -0.030860
v 0.030860 0.306904 -0.030860
v 0.030860 0.306904 0.030860
v -0.158135 0.147662 0.158135
v -0.158135 0.147662 -0.158135
v 0.158135 0.147662 -0.158135
v 0.158135 0.147662 0.158135
v -0.089773 0.177616 0.089773
v -0.089773 0.177616 -0.089773
v 0.089773 0.177616 -0.089773
v 0.089773 0.177616 0.089773
v -0.147662 0.135049 0.147662
v -0.147662 0.135049 -0.147662
v 0.147662 0.135049 -0.147662
v 0.147662 0.135049 0.147662
v 0.158135 0.135049 -0.158135
v -0.158135 0.135049 -0.158135
v -0.158135 0.135049 0.158135
v 0.158135 0.135049 0.158135
v -0.147662 -0.159926 -0.147662
v -0.147662 -0.159926 0.147662
v 0.147662 -0.159926 -0.147662
v 0.147662 -0.159926 0.147662
v -0.158396 -0.147662 -0.158396
v -0.158396 -0.147662 0.158396
v 0.158396 -0.147662 -0.158396
v 0.158396 -0.147662 0.158396
v -0.158396 -0.159926 -0.158396
v -0.158396 -0.159926 0.158396
v 0.158396 -0.159926 -0.158396
v 0.158396 -0.159926 0.158396
v -0.147662 -0.135492 -0.147662
v -0.147662 -0.135492 0.147662
v 0.147662 -0.135492 -0.147662
v 0.147662 -0.135492 0.147662
v 0.158396 -0.135492 -0.158396
v 0.158396 -0.135492 0.158396
v -0.158396 -0.135492 -0.158396
v -0.158396 -0.135492 0.158396
vt 0.625000 0.750000
vt 0.625000 1.000000
vt 0.625000 1.000000
vt 0.625000 0.750000
vt 0.625000 0.750000
vt 0.625000 0.500000
vt 0.625000 0.500000
vt 0.625000 0.750000
vt 0.625000 0.000000
vt 0.625000 0.250000
vt 0.625000 0.250000
vt 0.625000 0.000000
vt 0.625000 0.750000
vt 0.625000 0.500000
vt 0.625000 1.000000
vt 0.625000 0.750000
vt 0.625000 1.000000
vt 0.625000 0.000000
vt 0.625000 0.250000
vt 0.625000 1.000000
vt 0.625000 0.500000
vt 0.625000 0.250000
vt 0.625000 0.250000
vt 0.625000 0.500000
vt 0.625000 0.000000
vt 0.625000 0.750000
vt 0.625000 0.500000
vt 0.625000 0.750000
vt 0.625000 0.000000
vt 0.625000 1.000000
vt 0.625000 1.000000
vt 0.625000 0.750000
vt 0.625000 1.000000
vt 0.625000 0.000000
vt 0.625000 0.250000
vt 0.625000 0.500000
vt 0.875000 0.500000
vt 0.875000 0.750000
vt 0.625000 0.250000
vt 0.625000 0.000000
vt 0.625000 0.500000
vt 0.625000 0.250000
vt 0.625000 0.000000
vt 0.625000 1.000000
vt 0.625000 0.250000
vt 0.625000 0.000000
vt 0.625000 0.500000
vt 0.375000 0.000000
vt 0.625000 0.000000
vt 0.625000 0.250000
vt 0.375000 0.250000
vt 0.625000 0.500000
vt 0.375000 0.500000
vt 0.625000 0.750000
vt 0.375000 0.750000
vt 0.625000 1.000000
vt 0.375000 1.000000
vt 0.375000 1.000000
vt 0.375000 0.750000
vt 0.625000 0.250000
vt 0.625000 0.500000
vt 0.625000 0.750000
vt 0.625000 0.000000
vt 0.625000 1.000000
vt 0.125000 0.500000
vt 0.375000 0.500000
vt 0.375000 0.750000
vt 0.125000 0.750000
vt 0.125000 0.500000
vt 0.375000 0.500000
vt 0.375000 0.250000
vt 0.375000 0.000000
vt 0.375000 0.000000
vt 0.375000 0.250000
vt 0.375000 0.750000
vt 0.125000 0.750000
vt 0.375000 0.500000
vt 0.375000 0.750000
vt 0.375000 1.000000
vt 0.375000 1.000000
vt 0.375000 0.250000
vt 0.375000 0.000000
vt 0.375000 0.500000
vt 0.375000 0.750000
vt 0.375000 0.500000
vt 0.375000 1.000000
vt 0.375000 0.250000
vt 0.375000 0.000000
vn 0.0000 0.0000 1.0000
vn 0.0000 1.0000 0.0000
vn 0.0000 -0.5393 -0.8421
vn 0.0000 0.0000 -1.0000
vn 1.0000 0.0000 0.0000
vn -1.0000 0.0000 0.0000
vn 0.8421 -0.5393 0.0000
vn -0.8421 -0.5393 0.0000
vn 0.0000 -0.5393 0.8421
vn 0.0000 0.9364 0.3509
vn 0.0000 0.9364 -0.3509
vn 0.3509 0.9364 0.0000
vn -0.3509 0.9364 0.0000
vn 0.0000 0.9159 -0.4013
vn 0.4013 0.9159 0.0000
vn -0.4013 0.9159 0.0000
vn 0.0000 0.9159 0.4013
vn 0.0000 -1.0000 0.0000
usemtl Sword
s off
f 36/1/1 33/2/1 47/3/1 48/4/1
f 12/5/2 11/6/2 15/7/2 16/8/2
f 9/9/2 10/10/2 38/11/2 37/12/2
f 11/6/2 12/5/2 40/13/2 39/14/2
f 13/15/1 16/8/1 20/16/1 17/17/1
f 10/10/2 9/9/2 13/18/2 14/19/2
f 9/20/2 12/5/2 16/8/2 13/15/2
f 11/6/2 10/10/2 14/19/2 15/7/2
f 19/21/3 18/22/3 22/23/3 23/24/3
f 15/7/4 14/19/4 18/22/4 19/21/4
f 16/8/5 15/7/5 19/21/5 20/16/5
f 14/19/6 13/18/6 17/25/6 18/22/6
f 24/26/5 23/24/5 27/27/5 28/28/5
f 20/16/7 19/21/7 23/24/7 24/26/7
f 18/22/8 17/25/8 21/29/8 22/23/8
f 17/17/9 20/16/9 24/26/9 21/30/9
f 25/31/10 28/28/10 32/32/10 29/33/10
f 22/23/6 21/29/6 25/34/6 26/35/6
f 21/30/1 24/26/1 28/28/1 25/31/1
f 23/24/4 22/23/4 26/35/4 27/27/4
f 31/36/2 30/37/2 29/38/2 32/32/2
f 27/27/11 26/35/11 30/39/11 31/36/11
f 28/28/12 27/27/12 31/36/12 32/32/12
f 26/35/13 25/34/13 29/40/13 30/39/13
f 35/41/14 34/42/14 38/11/14 39/14/14
f 36/1/15 35/41/15 39/14/15 40/13/15
f 34/42/16 33/43/16 37/12/16 38/11/16
f 33/2/17 36/1/17 40/13/17 37/44/17
f 12/5/2 9/20/2 37/44/2 40/13/2
f 10/10/2 11/6/2 39/14/2 38/11/2
f 33/43/6 34/42/6 46/45/6 47/46/6
f 35/41/5 36/1/5 48/4/5 45/47/5
f 34/42/4 35/41/4 45/47/4 46/45/4
usemtl Material
f 1/48/6 2/49/6 4/50/6 3/51/6
f 3/51/4 4/50/4 8/52/4 7/53/4
f 7/53/5 8/52/5 6/54/5 5/55/5
f 5/55/1 6/54/1 2/56/1 1/57/1
f 5/55/4 1/57/4 62/58/4 64/59/4
f 8/52/1 4/50/1 42/60/1 43/61/1
f 44/62/18 43/61/18 45/47/18 48/4/18
f 43/61/18 42/60/18 46/45/18 45/47/18
f 42/60/18 41/63/18 47/46/18 46/45/18
f 41/64/18 44/62/18 48/4/18 47/3/18
f 6/54/6 8/52/6 43/61/6 44/62/6
f 4/50/5 2/49/5 41/63/5 42/60/5
f 2/56/4 6/54/4 44/62/4 41/64/4
f 49/65/18 51/66/18 52/67/18 50/68/18
f 51/66/18 49/65/18 57/69/18 59/70/18
f 53/71/6 54/72/6 68/73/6 67/74/6
f 50/68/18 52/67/18 60/75/18 58/76/18
f 55/77/5 56/78/5 60/75/5 59/70/5
f 56/78/1 54/79/1 58/80/1 60/75/1
f 53/71/4 55/77/4 59/70/4 57/81/4
f 54/72/6 53/71/6 57/81/6 58/82/6
f 52/67/18 51/66/18 59/70/18 60/75/18
f 49/65/18 50/68/18 58/76/18 57/69/18
f 56/78/5 55/77/5 65/83/5 66/84/5
f 7/53/6 5/55/6 64/59/6 63/85/6
f 64/59/2 62/58/2 68/86/2 66/84/2
f 63/85/2 64/59/2 66/84/2 65/83/2
f 61/87/2 63/85/2 65/83/2 67/74/2
f 62/88/2 61/87/2 67/74/2 68/73/2
f 54/79/1 56/78/1 66/84/1 68/86/1
f 3/51/1 7/53/1 63/85/1 61/87/1
f 55/77/4 53/71/4 67/74/4 65/83/4
f 1/48/5 3/51/5 61/87/5 62/88/5
