# Blender v2.80 (sub 52) OBJ File: 'Street.blend'
# www.blender.org
mtllib Street.mtl
o Cube
v 2.500000 0.235900 -5.000000
v 2.500000 -0.235900 -5.000000
v 2.500000 0.235900 5.000000
v 2.500000 -0.235900 5.000000
v -2.500000 0.235900 -5.000000
v -2.500000 -0.235900 -5.000000
v -2.500000 0.235900 5.000000
v -2.500000 -0.235900 5.000000
v 2.285493 0.235900 -5.000000
v 2.285493 0.235900 5.000000
v -2.285493 0.235900 -5.000000
v -2.285493 0.235900 5.000000
v 2.285493 0.376050 -5.000000
v 2.285493 0.376050 5.000000
v -2.285493 0.376050 -5.000000
v -2.285493 0.376050 5.000000
vt 0.625000 0.750000
vt 0.625000 0.500000
vt 0.625000 0.500000
vt 0.625000 0.750000
vt 0.375000 0.250000
vt 0.625000 0.250000
vt 0.375000 0.500000
vt 0.375000 0.750000
vt 0.625000 0.750000
vt 0.625000 1.000000
vt 0.375000 1.000000
vt 0.125000 0.500000
vt 0.375000 0.500000
vt 0.375000 0.750000
vt 0.125000 0.750000
vt 0.625000 0.500000
vt 0.875000 0.500000
vt 0.875000 0.750000
vt 0.625000 0.500000
vt 0.625000 0.750000
vt 0.375000 0.500000
vt 0.375000 0.750000
vt 0.875000 0.500000
vt 0.875000 0.750000
vt 0.625000 0.250000
vt 0.375000 0.000000
vt 0.625000 0.000000
vt 0.625000 0.250000
vt 0.375000 0.250000
vt 0.625000 0.250000
vt 0.875000 0.500000
vt 0.875000 0.750000
vt 0.375000 0.500000
vt 0.375000 0.750000
vn 0.0000 1.0000 0.0000
vn 0.0000 0.0000 1.0000
vn -1.0000 0.0000 0.0000
vn 0.0000 -1.0000 0.0000
vn 1.0000 0.0000 0.0000
vn 0.0000 0.0000 -1.0000
usemtl Material
s off
f 5/1/1 7/2/1 12/3/1 11/4/1
f 4/5/2 3/6/2 7/2/2 8/7/2
f 8/7/3 7/2/3 5/1/3 6/8/3
f 6/8/4 2/9/4 4/10/4 8/11/4
f 2/12/5 1/13/5 3/14/5 4/15/5
f 6/16/6 5/17/6 1/18/6 2/9/6
f 11/4/3 12/3/3 16/19/3 15/20/3
f 3/14/1 1/13/1 9/21/1 10/22/1
f 1/18/6 5/17/6 11/23/6 9/24/6
f 7/2/2 3/6/2 10/25/2 12/3/2
f 13/26/1 15/27/1 16/28/1 14/29/1
f 12/3/2 10/25/2 14/30/2 16/19/2
f 9/24/6 11/23/6 15/31/6 13/32/6
f 10/22/5 9/21/5 13/33/5 14/34/5
